<svg xmlns="http://www.w3.org/2000/svg" xml:space="preserve" width="1000px" height="1000px" x="0px" y="0px" viewBox="0 0 1000 1000"><path d="M1000 750c0 138.068-111.932 250-250 250H250C111.929 1000 0 888.068 0 750V250C0 111.929 111.929 0 250 0h500c138.068 0 250 111.929 250 250v500z"/><radialGradient id="a" cx="500" cy="500" r="500" gradientUnits="userSpaceOnUse"><stop offset="0" style="stop-color:#ff004f;stop-opacity:.2"/><stop offset="1" style="stop-color:#ff004f;stop-opacity:.1"/></radialGradient><path fill="url(#a)" d="M1000 750c0 138.068-111.932 250-250 250H250C111.929 1000 0 888.068 0 750V250C0 111.929 111.929 0 250 0h500c138.068 0 250 111.929 250 250v500z"/><path fill="#25F4EE" d="m433.07 431.296-.112-30.802c-9.142-1.214-18.436-1.976-28.041-1.976-114.412-.157-207.51 93.015-207.51 207.696 0 70.287 35.041 132.498 88.678 170.166-7.696-28.08-52.916-86.598-52.916-141.183 0-112.998 87.766-201.306 199.901-203.901z"/><path fill="#25F4EE" d="M439.308 731.664c58.267-3.653 94.171-41.855 95.444-93l.705-449.968c26.61-.918 80.453-.154 79.828-2.755-1.676-9.3-2.595-18.908-2.595-28.664H499.945l-.154 452.431c-1.834 50.64-43.576 91.334-94.617 91.334-15.847 0-30.778-3.957-44.035-10.973-.194 13.84 46.263 43.596 78.17 41.595zM769.673 339.506V314.35c-31.546 0-60.778-9.3-85.476-25.467 9.826 37.287 56.955 69.95 85.476 50.623z"/><path fill="#FE2C55" d="M684.217 288.889c-24.073-27.601-38.555-63.589-38.555-102.931l-32.436-.017c7.762 43.001 27.545 98.797 70.991 102.948zM405.039 511.205c-52.259 0-94.769 42.538-94.769 94.854 0 36.429 25.894 91.422 50.884 84.011-11.272-15.562-17.973-34.617-17.973-55.344 0-52.304 42.503-94.854 94.765-94.854 9.753 0 19.2 1.683 28.038 4.407V429.006c-9.146-1.217-18.439-1.979-28.038-1.979-1.677 0-3.196.154-4.876.154l-3.306 84.856c-8.99-2.73-14.976-.832-24.725-.832z"/><path fill="#FE2C55" d="m769.673 339.506-3.797 85.467c-58.491 0-109.894-20.972-154.071-52.688l-2.848 233.929c-1.395 114.507-86.765 204.993-201.344 204.993-44.176 0-102.802-32.787-121.518-34.827 37.935 40.72 92.022 66.342 151.9 66.342 114.431 0 207.667-93.172 207.667-207.841V405.383c44.189 31.716 98.421 50.473 156.931 50.473V343.018c-11.43 0-22.397-1.221-32.92-3.512z"/><path fill="#FFF" d="M612.78 606.214V376.722c44.183 31.716 98.427 50.476 156.925 50.476v-87.682c-33.827-7.167-63.516-25.467-85.476-50.627-35.343-23.026-60.771-59.93-68.854-102.931h-82.584l-.154 452.431c-1.831 50.627-43.569 91.348-94.611 91.348-31.693 0-59.576-15.715-76.946-39.5-30.167-16.004-50.89-47.581-50.89-84.022 0-52.298 42.513-94.854 94.771-94.854 9.753 0 19.197 1.683 28.041 4.433v-88.44c-112.145 2.441-202.644 94.543-202.644 207.529 0 54.598 21.179 104.293 55.764 141.499 33.672 23.644 74.81 37.675 118.999 37.675 114.41-.002 207.659-93.328 207.659-207.843z"/></svg>